<!-- <svg width="8" height="16" viewBox="0 0 8 16" fill="none" xmlns="http://www.w3.org/2000/svg">
<path fill-rule="evenodd" clip-rule="evenodd" d="M7.19741 1.06005C7.48569 1.30716 7.51908 1.74118 7.27198 2.02946L2.15548 7.99871L7.27198 13.968C7.51908 14.2562 7.48569 14.6903 7.19741 14.9374C6.90912 15.1845 6.4751 15.1511 6.228 14.8628L0.727999 8.44613C0.507317 8.18867 0.507317 7.80875 0.727999 7.55129L6.228 1.13462C6.4751 0.846338 6.90912 0.812952 7.19741 1.06005Z" fill="white" stroke="white" stroke-width="0.5" stroke-linecap="round"/>
</svg> -->

<svg width="22" height="22" viewBox="0 0 22 22" fill="none" xmlns="http://www.w3.org/2000/svg">
<path fill-rule="evenodd" clip-rule="evenodd" d="M14.1974 4.06005C14.4857 4.30716 14.5191 4.74118 14.272 5.02946L9.15548 10.9987L14.272 16.968C14.5191 17.2562 14.4857 17.6903 14.1974 17.9374C13.9091 18.1845 13.4751 18.1511 13.228 17.8628L7.728 11.4461C7.50732 11.1887 7.50732 10.8088 7.728 10.5513L13.228 4.13462C13.4751 3.84634 13.9091 3.81295 14.1974 4.06005Z" fill="white" stroke="white" stroke-width="0.5" stroke-linecap="round"/>
</svg>
