<!-- <svg width="8" height="16" viewBox="0 0 8 16" fill="none" xmlns="http://www.w3.org/2000/svg">
<path fill-rule="evenodd" clip-rule="evenodd" d="M0.802593 1.06005C0.514307 1.30716 0.480921 1.74118 0.728024 2.02946L5.84452 7.99871L0.728024 13.968C0.480921 14.2562 0.514307 14.6903 0.802593 14.9374C1.09088 15.1845 1.5249 15.1511 1.772 14.8628L7.272 8.44613C7.49268 8.18867 7.49268 7.80875 7.272 7.55129L1.772 1.13462C1.5249 0.846338 1.09088 0.812952 0.802593 1.06005Z" fill="white" stroke="white" stroke-width="0.5" stroke-linecap="round"/>
</svg> -->


<svg width="22" height="22" viewBox="0 0 22 22" fill="none" xmlns="http://www.w3.org/2000/svg">
<path fill-rule="evenodd" clip-rule="evenodd" d="M7.80259 4.06005C7.51431 4.30716 7.48092 4.74118 7.72802 5.02946L12.8445 10.9987L7.72802 16.968C7.48092 17.2562 7.51431 17.6903 7.80259 17.9374C8.09088 18.1845 8.5249 18.1511 8.772 17.8628L14.272 11.4461C14.4927 11.1887 14.4927 10.8088 14.272 10.5513L8.772 4.13462C8.5249 3.84634 8.09088 3.81295 7.80259 4.06005Z" fill="white" stroke="white" stroke-width="0.5" stroke-linecap="round"/>
</svg>
