<svg width="22" height="22" viewBox="0 0 22 22" fill="none" xmlns="http://www.w3.org/2000/svg">
<path d="M17.0814 14.363L18.6548 9.64277C20.0293 5.51925 20.7166 3.45748 19.6282 2.36916C18.5399 1.28083 16.4782 1.96808 12.3546 3.34258L7.63441 4.91599C4.30633 6.02535 2.64229 6.58003 2.16942 7.39343C1.71957 8.16723 1.71957 9.12291 2.16942 9.89671C2.64229 10.7101 4.30633 11.2648 7.63441 12.3742C8.16878 12.5523 8.43597 12.6413 8.6593 12.7908C8.87574 12.9357 9.06166 13.1217 9.20655 13.3381C9.35606 13.5614 9.44513 13.8286 9.62325 14.363C10.7326 17.6911 11.2873 19.3551 12.1007 19.828C12.8745 20.2778 13.8302 20.2778 14.604 19.828C15.4174 19.3551 15.972 17.6911 17.0814 14.363Z" stroke="#4F4D55" stroke-width="1.5"/>
<path d="M14.903 8.15515C15.1975 7.86389 15.2001 7.38902 14.9088 7.09451C14.6176 6.8 14.1427 6.79736 13.8482 7.08863L14.903 8.15515ZM9.81645 13.1856L14.903 8.15515L13.8482 7.08863L8.76168 12.1191L9.81645 13.1856Z" fill="#4F4D55"/>
</svg>
