<svg width="140" height="140" viewBox="0 0 140 140" fill="none" xmlns="http://www.w3.org/2000/svg">
<rect x="0.5" y="0.5" width="139" height="139" rx="7.5" stroke="black" stroke-dasharray="8 8"/>
<circle cx="70" cy="71.6667" r="5" stroke="#4F4D55" stroke-width="2.5"/>
<path d="M66.295 85H73.7024C78.9041 85 81.505 85 83.3733 83.7743C84.1821 83.2437 84.8766 82.5619 85.417 81.7678C86.6654 79.9334 86.6654 77.3799 86.6654 72.2727C86.6654 67.1656 86.6654 64.612 85.417 62.7777C84.8766 61.9836 84.1821 61.3017 83.3733 60.7711C82.1728 59.9836 80.6698 59.702 78.3687 59.6014C77.2706 59.6014 76.3252 58.7845 76.1098 57.7273C75.7868 56.1415 74.3686 55 72.7215 55H67.2759C65.6288 55 64.2106 56.1415 63.8876 57.7273C63.6722 58.7845 62.7268 59.6014 61.6287 59.6014C59.3276 59.702 57.8246 59.9836 56.6241 60.7711C55.8153 61.3017 55.1208 61.9836 54.5804 62.7777C53.332 64.612 53.332 67.1656 53.332 72.2727C53.332 77.3799 53.332 79.9334 54.5804 81.7678C55.1208 82.5619 55.8153 83.2437 56.6241 83.7743C58.4924 85 61.0933 85 66.295 85Z" stroke="#4F4D55" stroke-width="2.5"/>
<path d="M81.6667 66.6667H80" stroke="#4F4D55" stroke-width="2.5" stroke-linecap="round"/>
</svg>
